<svg width="593.4499999999999px" height="121.60000610351562px" xmlns="http://www.w3.org/2000/svg" viewBox="-46.724999999999966 14.199996948242188 593.4499999999999 121.60000610351562" style="background: rgb(19, 23, 35); --darkreader-inline-bgimage: initial; --darkreader-inline-bgcolor: #232628;" data-darkreader-inline-bgimage="" data-darkreader-inline-bgcolor="" preserveAspectRatio="xMidYMid"><defs><filter id="editing-hole" x="-100%" y="-100%" width="300%" height="300%"><feFlood flood-color="#ffffff" result="black"></feFlood><feMorphology operator="dilate" radius="2" in="SourceGraphic" result="erode"></feMorphology><feGaussianBlur in="erode" stdDeviation="4" result="blur"></feGaussianBlur><feOffset in="blur" dx="2" dy="2" result="offset"></feOffset><feComposite operator="atop" in="offset" in2="black" result="merge"></feComposite><feComposite operator="in" in="merge" in2="SourceGraphic" result="inner-shadow"></feComposite></filter></defs><g filter="url(#editing-hole)"><g transform="translate(42.43617057800293, 99.02999687194824)"><path d="M29.18 1.28L29.18 1.28L29.18 1.28Q20.99 1.28 20.22-10.37L20.22-10.37L9.22-10.37L9.22-10.37Q7.94-7.42 7.04-4.86L7.04-4.86L5.38 0L-3.58 0L16.58-42.24L30.34-42.24L33.02-11.14L33.02-11.14Q33.66-4.42 36.22-2.43L36.22-2.43L36.22-2.43Q34.37 1.28 29.18 1.28ZM14.72-23.17L11.20-15.04L20.03-15.04L19.26-31.49L19.26-33.22L14.72-23.17ZM71.36-26.62L71.36-26.62L71.36-26.62Q71.36-23.94 69.12-22.27L69.12-22.27L69.12-22.27Q66.88-20.61 63.23-20.61L63.23-20.61L63.23-20.61Q61.70-20.61 60.80-21.06L60.80-21.06L60.80-21.06Q61.50-22.72 61.73-24.80L61.73-24.80L61.73-24.80Q61.95-26.88 61.95-27.46L61.95-27.46L61.95-27.46Q61.95-30.14 60.10-30.14L60.10-30.14L60.10-30.14Q58.82-30.14 57.38-28.54L57.38-28.54L57.38-28.54Q55.94-26.94 54.72-24.45L54.72-24.45L54.72-24.45Q52.03-18.69 52.03-12.86L52.03-12.86L52.03-12.86Q52.03-9.66 53.25-8.22L53.25-8.22L53.25-8.22Q54.46-6.78 57.15-6.78L57.15-6.78L57.15-6.78Q60.86-6.78 63.81-9.86L63.81-9.86L63.81-9.86Q64.64-10.82 65.09-11.90L65.09-11.90L65.09-11.90Q67.52-10.62 67.52-7.10L67.52-7.10L67.52-7.10Q67.52-3.52 63.55-1.15L63.55-1.15L63.55-1.15Q59.46 1.28 52.93 1.28L52.93 1.28L52.93 1.28Q39.94 1.28 39.94-12.48L39.94-12.48L39.94-12.48Q39.94-22.53 45.63-28.29L45.63-28.29L45.63-28.29Q51.14-33.92 61.25-33.92L61.25-33.92L61.25-33.92Q71.36-33.92 71.36-26.62ZM75.87-1.92L75.87-1.92L75.87-1.92Q74.37-3.58 73.70-6.21L73.70-6.21L73.70-6.21Q73.02-8.83 73.02-13.12L73.02-13.12L73.02-13.12Q73.02-17.41 74.50-21.31L74.50-21.31L74.50-21.31Q75.97-25.22 78.66-28.03L78.66-28.03L78.66-28.03Q84.16-33.92 93.25-33.92L93.25-33.92L93.25-33.92Q96.51-33.92 98.88-32.83L98.88-32.83L109.82-33.92L105.09-8.96L105.09-8.96Q104.90-8.19 104.90-6.78L104.90-6.78L104.90-6.78Q104.90-5.38 105.76-4.48L105.76-4.48L105.76-4.48Q106.62-3.58 107.90-3.46L107.90-3.46L107.90-3.46Q107.26-1.28 104.93 0L104.93 0L104.93 0Q102.59 1.28 99.97 1.28L99.97 1.28L99.97 1.28Q97.34 1.28 95.58 0.29L95.58 0.29L95.58 0.29Q93.82-0.70 93.31-2.37L93.31-2.37L93.31-2.37Q92.29-0.77 90.11 0.26L90.11 0.26L90.11 0.26Q87.94 1.28 85.02 1.28L85.02 1.28L85.02 1.28Q82.11 1.28 79.74 0.51L79.74 0.51L79.74 0.51Q77.38-0.26 75.87-1.92ZM89.38-27.90L89.38-27.90L89.38-27.90Q88.64-26.75 88-24.80L88-24.80L88-24.80Q87.36-22.85 86.30-17.63L86.30-17.63L86.30-17.63Q85.25-12.42 85.25-8.70L85.25-8.70L85.25-8.70Q85.25-4.99 85.82-3.90L85.82-3.90L85.82-3.90Q86.40-2.82 87.42-2.82L87.42-2.82L87.42-2.82Q89.47-2.82 90.98-4.77L90.98-4.77L90.98-4.77Q92.48-6.72 93.06-10.18L93.06-10.18L96.45-28.93L96.45-28.93Q95.10-30.08 93.54-30.08L93.54-30.08L93.54-30.08Q91.97-30.08 91.04-29.57L91.04-29.57L91.04-29.57Q90.11-29.06 89.38-27.90ZM133.18-33.92L133.18-33.92L133.18-33.92Q135.49-33.92 137.28-33.41L137.28-33.41L137.28-33.41Q137.34-33.66 137.47-34.37L137.47-34.37L137.79-36.35L137.79-36.35Q138.05-37.63 138.43-39.74L138.43-39.74L139.46-44.80L152.19-46.08L145.09-8.96L145.09-8.96Q145.02-8.58 145.02-7.94L145.02-7.94L145.02-6.91L145.02-6.91Q145.02-5.50 145.73-4.45L145.73-4.45L145.73-4.45Q146.43-3.39 147.58-3.39L147.58-3.39L147.58-3.39Q146.30-0.38 142.40 0.90L142.40 0.90L142.40 0.90Q141.06 1.28 139.17 1.28L139.17 1.28L139.17 1.28Q137.28 1.28 135.55 0.29L135.55 0.29L135.55 0.29Q133.82-0.70 133.31-2.37L133.31-2.37L133.31-2.37Q132.29-0.70 130.24 0.29L130.24 0.29L130.24 0.29Q128.19 1.28 125.22 1.28L125.22 1.28L125.22 1.28Q122.24 1.28 119.78 0.51L119.78 0.51L119.78 0.51Q117.31-0.26 115.78-1.92L115.78-1.92L115.78-1.92Q112.96-5.18 112.96-12.61L112.96-12.61L112.96-12.61Q112.96-22.21 118.59-28.03L118.59-28.03L118.59-28.03Q124.22-33.92 133.18-33.92ZM132.74-30.08L132.74-30.08L132.74-30.08Q130.37-30.08 129.09-27.52L129.09-27.52L129.09-27.52Q127.81-24.96 126.50-18.62L126.50-18.62L126.50-18.62Q125.18-12.29 125.18-6.59L125.18-6.59L125.18-6.59Q125.18-2.69 127.49-2.69L127.49-2.69L127.49-2.69Q129.54-2.69 130.98-4.74L130.98-4.74L130.98-4.74Q132.42-6.78 132.99-10.18L132.99-10.18L136.45-28.93L136.45-28.93Q135.10-30.08 132.74-30.08ZM178.94-10.82L178.94-10.82L178.94-10.82Q180.54-9.73 180.54-7.33L180.54-7.33L180.54-7.33Q180.54-4.93 179.33-3.39L179.33-3.39L179.33-3.39Q178.11-1.86 176.13-0.83L176.13-0.83L176.13-0.83Q172.03 1.28 167.62 1.28L167.62 1.28L167.62 1.28Q163.20 1.28 160.61 0.32L160.61 0.32L160.61 0.32Q158.02-0.64 156.29-2.43L156.29-2.43L156.29-2.43Q152.90-5.82 152.90-12.03L152.90-12.03L152.90-12.03Q152.90-21.70 158.14-27.58L158.14-27.58L158.14-27.58Q163.78-33.92 173.57-33.92L173.57-33.92L173.57-33.92Q179.65-33.92 182.66-31.36L182.66-31.36L182.66-31.36Q184.90-29.44 184.90-26.30L184.90-26.30L184.90-26.30Q184.90-15.04 165.44-15.04L165.44-15.04L165.44-15.04Q165.18-13.38 165.18-11.97L165.18-11.97L165.18-11.97Q165.18-9.02 166.50-7.90L166.50-7.90L166.50-7.90Q167.81-6.78 170.24-6.78L170.24-6.78L170.24-6.78Q172.67-6.78 175.26-7.90L175.26-7.90L175.26-7.90Q177.86-9.02 178.94-10.82ZM165.89-17.79L165.89-17.79L165.89-17.79Q170.43-17.79 173.06-20.61L173.06-20.61L173.06-20.61Q175.68-23.30 175.68-27.58L175.68-27.58L175.68-27.58Q175.68-29.06 175.14-29.86L175.14-29.86L175.14-29.86Q174.59-30.66 173.50-30.66L173.50-30.66L173.50-30.66Q172.42-30.66 171.49-30.24L171.49-30.24L171.49-30.24Q170.56-29.82 169.60-28.42L169.60-28.42L169.60-28.42Q167.23-25.22 165.89-17.79ZM233.15 1.28L233.15 1.28L233.15 1.28Q225.41 1.28 225.41-4.74L225.41-4.74L225.41-4.74Q225.41-7.36 226.53-12.45L226.53-12.45L226.53-12.45Q227.65-17.54 228.03-19.58L228.03-19.58L228.03-19.58Q228.93-24.26 228.93-25.73L228.93-25.73L228.93-25.73Q228.93-28.99 226.50-28.99L226.50-28.99L226.50-28.99Q224.90-28.99 223.36-26.78L223.36-26.78L223.36-26.78Q221.82-24.58 221.12-20.16L221.12-20.16L217.15 0L204.67 1.28L208.13-16.13L208.13-16.13Q208.70-19.01 209.22-22.27L209.22-22.27L209.22-22.27Q209.73-25.54 209.73-26.05L209.73-26.05L209.73-26.05Q209.73-28.99 207.55-28.99L207.55-28.99L207.55-28.99Q206.08-28.99 204.48-26.82L204.48-26.82L204.48-26.82Q202.88-24.64 201.98-20.16L201.98-20.16L198.08 0L185.47 1.28L192.19-32.64L202.62-33.92L201.54-27.46L201.54-27.46Q203.20-30.91 206.27-32.42L206.27-32.42L206.27-32.42Q209.34-33.92 214.14-33.92L214.14-33.92L214.14-33.92Q216.90-33.92 218.69-32.58L218.69-32.58L218.69-32.58Q220.48-31.23 221.06-29.06L221.06-29.06L221.06-29.06Q222.14-31.30 224.93-32.61L224.93-32.61L224.93-32.61Q227.71-33.92 231.14-33.92L231.14-33.92L231.14-33.92Q234.56-33.92 236.26-33.18L236.26-33.18L236.26-33.18Q237.95-32.45 238.98-31.23L238.98-31.23L238.98-31.23Q240.70-28.99 240.70-24.90L240.70-24.90L240.70-24.90Q240.70-20.86 238.98-12.48L238.98-12.48L238.98-12.48Q238.08-8.38 238.08-6.88L238.08-6.88L238.08-6.88Q238.08-5.38 238.94-4.48L238.94-4.48L238.94-4.48Q239.81-3.58 241.09-3.46L241.09-3.46L241.09-3.46Q240.45-1.28 238.24 0L238.24 0L238.24 0Q236.03 1.28 233.15 1.28ZM261.38-3.52L261.38-3.52L261.38-3.52Q259.39 1.28 253.06 1.28L253.06 1.28L253.06 1.28Q249.79 1.28 247.74-0.96L247.74-0.96L247.74-0.96Q246.02-2.94 246.02-4.93L246.02-4.93L246.02-4.93Q246.02-10.11 248.38-20.22L248.38-20.22L250.75-32.64L263.74-33.92L259.84-13.70L259.84-13.70Q258.75-8.96 258.75-7.30L258.75-7.30L258.75-7.30Q258.75-3.65 261.38-3.52ZM251.90-41.54L251.90-41.54L251.90-41.54Q251.90-44.03 253.98-45.38L253.98-45.38L253.98-45.38Q256.06-46.72 259.07-46.72L259.07-46.72L259.07-46.72Q262.08-46.72 263.90-45.38L263.90-45.38L263.90-45.38Q265.73-44.03 265.73-41.54L265.73-41.54L265.73-41.54Q265.73-39.04 263.71-37.76L263.71-37.76L263.71-37.76Q261.70-36.48 258.69-36.48L258.69-36.48L258.69-36.48Q255.68-36.48 253.79-37.76L253.79-37.76L253.79-37.76Q251.90-39.04 251.90-41.54ZM298.24-26.62L298.24-26.62L298.24-26.62Q298.24-23.94 296-22.27L296-22.27L296-22.27Q293.76-20.61 290.11-20.61L290.11-20.61L290.11-20.61Q288.58-20.61 287.68-21.06L287.68-21.06L287.68-21.06Q288.38-22.72 288.61-24.80L288.61-24.80L288.61-24.80Q288.83-26.88 288.83-27.46L288.83-27.46L288.83-27.46Q288.83-30.14 286.98-30.14L286.98-30.14L286.98-30.14Q285.70-30.14 284.26-28.54L284.26-28.54L284.26-28.54Q282.82-26.94 281.60-24.45L281.60-24.45L281.60-24.45Q278.91-18.69 278.91-12.86L278.91-12.86L278.91-12.86Q278.91-9.66 280.13-8.22L280.13-8.22L280.13-8.22Q281.34-6.78 284.03-6.78L284.03-6.78L284.03-6.78Q287.74-6.78 290.69-9.86L290.69-9.86L290.69-9.86Q291.52-10.82 291.97-11.90L291.97-11.90L291.97-11.90Q294.40-10.62 294.40-7.10L294.40-7.10L294.40-7.10Q294.40-3.52 290.43-1.15L290.43-1.15L290.43-1.15Q286.34 1.28 279.81 1.28L279.81 1.28L279.81 1.28Q266.82 1.28 266.82-12.48L266.82-12.48L266.82-12.48Q266.82-22.53 272.51-28.29L272.51-28.29L272.51-28.29Q278.02-33.92 288.13-33.92L288.13-33.92L288.13-33.92Q298.24-33.92 298.24-26.62ZM324.99 0.83L320.90 0.70L320.90 0.70Q318.91 0.64 316.83 0.64L316.83 0.64L316.83 0.64Q314.75 0.64 312.70 0.90L312.70 0.90L312.70 0.90Q312.45-0.13 312.45-1.34L312.45-1.34L312.45-1.34Q312.45-3.90 313.89-5.44L313.89-5.44L313.89-5.44Q315.33-6.98 317.57-6.98L317.57-6.98L321.02-6.98L326.40-31.17L326.40-31.17Q324.42-29.18 320.32-29.18L320.32-29.18L320.32-29.18Q318.27-29.18 316.67-31.10L316.67-31.10L316.67-31.10Q315.07-32.90 314.82-35.46L314.82-35.46L314.82-35.46Q324.29-37.12 338.43-43.46L338.43-43.46L340.48-41.02L334.27-6.98L335.87-6.98L335.87-6.98Q339.71-6.98 341.70-7.68L341.70-7.68L341.70-7.68Q342.53-6.27 342.53-3.97L342.53-3.97L342.53-3.97Q342.53-1.66 340.83-0.29L340.83-0.29L340.83-0.29Q339.14 1.09 336.32 1.09L336.32 1.09L336.32 1.09Q330.62 1.09 324.99 0.83L324.99 0.83ZM347.58-15.23L347.58-15.23L347.58-15.23Q347.58-28.16 353.66-35.84L353.66-35.84L353.66-35.84Q359.74-43.52 370.18-43.52L370.18-43.52L370.18-43.52Q375.74-43.52 378.94-39.36L378.94-39.36L378.94-39.36Q382.14-35.20 382.14-28.26L382.14-28.26L382.14-28.26Q382.14-21.31 380.58-15.90L380.58-15.90L380.58-15.90Q379.01-10.50 376.19-6.66L376.19-6.66L376.19-6.66Q370.30 1.34 360.51 1.34L360.51 1.34L360.51 1.34Q353.92 1.34 350.75-2.72L350.75-2.72L350.75-2.72Q347.58-6.78 347.58-15.23ZM358.91-10.88L358.91-10.88L358.91-10.88Q358.91-4.42 361.02-4.42L361.02-4.42L361.02-4.42Q362.94-4.42 364.70-6.66L364.70-6.66L364.70-6.66Q366.46-8.90 367.87-12.67L367.87-12.67L367.87-12.67Q370.88-20.93 370.88-31.17L370.88-31.17L370.88-31.17Q370.88-34.62 370.34-36.19L370.34-36.19L370.34-36.19Q369.79-37.76 368.35-37.76L368.35-37.76L368.35-37.76Q366.91-37.76 365.22-35.26L365.22-35.26L365.22-35.26Q363.52-32.77 362.11-28.86L362.11-28.86L362.11-28.86Q358.91-19.97 358.91-10.88ZM397.06 0.83L392.96 0.70L392.96 0.70Q390.98 0.64 388.90 0.64L388.90 0.64L388.90 0.64Q386.82 0.64 384.77 0.90L384.77 0.90L384.77 0.90Q384.51-0.13 384.51-1.34L384.51-1.34L384.51-1.34Q384.51-3.90 385.95-5.44L385.95-5.44L385.95-5.44Q387.39-6.98 389.63-6.98L389.63-6.98L393.09-6.98L398.46-31.17L398.46-31.17Q396.48-29.18 392.38-29.18L392.38-29.18L392.38-29.18Q390.34-29.18 388.74-31.10L388.74-31.10L388.74-31.10Q387.14-32.90 386.88-35.46L386.88-35.46L386.88-35.46Q396.35-37.12 410.50-43.46L410.50-43.46L412.54-41.02L406.34-6.98L407.94-6.98L407.94-6.98Q411.78-6.98 413.76-7.68L413.76-7.68L413.76-7.68Q414.59-6.27 414.59-3.97L414.59-3.97L414.59-3.97Q414.59-1.66 412.90-0.29L412.90-0.29L412.90-0.29Q411.20 1.09 408.38 1.09L408.38 1.09L408.38 1.09Q402.69 1.09 397.06 0.83L397.06 0.83Z" fill="#606054"></path></g></g><style>text {
  font-size: 64px;
  font-family: Arial Black;
  dominant-baseline: central;
  text-anchor: middle;
}</style></svg>